<svg width="35" height="35" viewBox="0 0 35 35" fill="none" xmlns="http://www.w3.org/2000/svg">
<path d="M20.7087 4.19336C18.9198 4.19336 17.2043 4.90397 15.9394 6.16886C14.6745 7.43376 13.9639 9.14932 13.9639 10.9382V14.6934H10.3545C10.1733 14.6934 10.0264 14.8403 10.0264 15.0215V19.9798C10.0264 20.161 10.1733 20.3079 10.3545 20.3079H13.9639V30.4798C13.9639 30.661 14.1108 30.8079 14.292 30.8079H19.2503C19.4315 30.8079 19.5785 30.661 19.5785 30.4798V20.3079H23.2198C23.3704 20.3079 23.5016 20.2055 23.5381 20.0594L24.7777 15.1011C24.8295 14.894 24.6728 14.6934 24.4594 14.6934H19.5785V10.9382C19.5785 10.6384 19.6975 10.3509 19.9095 10.139C20.1214 9.92702 20.4089 9.80794 20.7087 9.80794H24.5003C24.6815 9.80794 24.8285 9.66104 24.8285 9.47982V4.52148C24.8285 4.34027 24.6815 4.19336 24.5003 4.19336H20.7087Z" fill="white"/>
</svg>
