<svg width="35" height="35" viewBox="0 0 35 35" fill="none" xmlns="http://www.w3.org/2000/svg">
<path d="M17.4998 12.7604C14.8822 12.7604 12.7603 14.8824 12.7603 17.5C12.7603 20.1176 14.8822 22.2395 17.4998 22.2395C20.1174 22.2395 22.2394 20.1176 22.2394 17.5C22.2394 14.8824 20.1174 12.7604 17.4998 12.7604Z" fill="white"/>
<path fill-rule="evenodd" clip-rule="evenodd" d="M9.87208 4.49377C14.9006 3.93176 20.0991 3.93176 25.1276 4.49377C27.8961 4.80319 30.1291 6.98454 30.4541 9.76274C31.0553 14.9034 31.0553 20.0966 30.4541 25.2372C30.1291 28.0154 27.8961 30.1967 25.1276 30.5062C20.0991 31.0682 14.9006 31.0682 9.87208 30.5062C7.10359 30.1967 4.8706 28.0154 4.54566 25.2372C3.94442 20.0966 3.94442 14.9034 4.54566 9.76274C4.8706 6.98454 7.10359 4.80319 9.87208 4.49377ZM24.7915 8.74997C23.9861 8.74997 23.3332 9.40288 23.3332 10.2083C23.3332 11.0137 23.9861 11.6666 24.7915 11.6666C25.5969 11.6666 26.2498 11.0137 26.2498 10.2083C26.2498 9.40288 25.5969 8.74997 24.7915 8.74997ZM10.5728 17.5C10.5728 13.6742 13.6741 10.5729 17.4998 10.5729C21.3256 10.5729 24.4269 13.6742 24.4269 17.5C24.4269 21.3257 21.3256 24.427 17.4998 24.427C13.6741 24.427 10.5728 21.3257 10.5728 17.5Z" fill="white"/>
</svg>
