<svg width="35" height="35" viewBox="0 0 35 35" fill="none" xmlns="http://www.w3.org/2000/svg">
<path d="M31.8055 9.08204C31.8901 8.96425 31.7652 8.81216 31.6301 8.86456C30.6694 9.23691 29.6654 9.48814 28.6413 9.61194C29.7816 8.93072 30.6615 7.89373 31.1495 6.66601C31.1992 6.54095 31.0626 6.42926 30.9448 6.49432C29.885 7.0796 28.742 7.50106 27.5547 7.74378C27.505 7.75394 27.4538 7.73702 27.4189 7.7002C26.5279 6.76005 25.3551 6.13408 24.0765 5.91777C22.771 5.69691 21.4292 5.91559 20.2614 6.53951C19.0937 7.16343 18.166 8.1573 17.624 9.36525C17.1086 10.5138 16.9695 11.7941 17.2237 13.0236C17.2434 13.119 17.1688 13.2091 17.0715 13.2031C14.7615 13.0596 12.5044 12.4451 10.4394 11.3967C8.37961 10.351 6.55563 8.89623 5.07852 7.12212C5.01297 7.04339 4.88872 7.05358 4.84096 7.14422C4.38134 8.0164 4.14069 8.98851 4.14134 9.97653C4.13947 10.96 4.38082 11.9287 4.8439 12.7963C5.30698 13.6639 5.97741 14.4036 6.79551 14.9494C5.92791 14.9258 5.07722 14.7113 4.30358 14.3225C4.20388 14.2723 4.08428 14.3437 4.08947 14.4552C4.1498 15.752 4.62587 17.0539 5.44993 18.0527C6.32685 19.1157 7.54401 19.8431 8.89551 20.1119C8.37526 20.2703 7.83512 20.3537 7.29134 20.3599C6.99539 20.3564 6.70001 20.3346 6.40691 20.2945C6.29824 20.2796 6.2095 20.3829 6.24755 20.4857C6.65065 21.5758 7.3628 22.527 8.29916 23.2213C9.30023 23.9637 10.5078 24.3755 11.7538 24.3994C9.64976 26.055 7.052 26.9586 4.37467 26.9661C4.09957 26.967 3.82459 26.9581 3.55025 26.9394C3.39566 26.9289 3.32456 27.1348 3.45781 27.2139C6.06643 28.762 9.04803 29.5802 12.0893 29.5765C14.3346 29.5998 16.5622 29.1755 18.6417 28.3283C20.7213 27.4811 22.6112 26.228 24.201 24.6423C25.7909 23.0565 27.0488 21.1698 27.9013 19.0924C28.7539 17.0151 29.1839 14.7886 29.1663 12.5432V11.8434C29.1663 11.7974 29.1881 11.7541 29.2249 11.7264C30.214 10.9795 31.0839 10.0878 31.8055 9.08204Z" fill="white"/>
</svg>
