<svg width="35" height="35" viewBox="0 0 35 35" fill="none" xmlns="http://www.w3.org/2000/svg">
<path fill-rule="evenodd" clip-rule="evenodd" d="M10.1923 7.13114C15.0568 6.75056 19.9436 6.75056 24.8081 7.13114L28.0758 7.38678C29.8959 7.52918 31.3849 8.8933 31.6858 10.694C32.4386 15.1995 32.4386 19.7987 31.6858 24.3042C31.3849 26.105 29.8959 27.4691 28.0758 27.6115L24.8081 27.8671C19.9436 28.2477 15.0568 28.2477 10.1923 27.8671L6.92457 27.6115C5.10446 27.4691 3.61547 26.105 3.3146 24.3042C2.5618 19.7987 2.5618 15.1995 3.3146 10.694C3.61547 8.8933 5.10446 7.52918 6.92457 7.38678L10.1923 7.13114ZM14.5835 21.1014V13.8968C14.5835 13.5568 14.9545 13.3467 15.2461 13.5217L21.2499 17.124C21.5331 17.2939 21.5331 17.7044 21.2499 17.8743L15.2461 21.4766C14.9545 21.6515 14.5835 21.4415 14.5835 21.1014Z" fill="white"/>
</svg>
